<mxfile host="app.diagrams.net" agent="Mozilla/5.0 (Windows NT 10.0; Win64; x64) AppleWebKit/537.36 (KHTML, like Gecko) Chrome/133.0.0.0 Safari/537.36" version="26.0.16">
  <diagram id="C5RBs43oDa-KdzZeNtuy" name="Page-1">
    <mxGraphModel grid="1" page="1" gridSize="10" guides="1" tooltips="1" connect="1" arrows="1" fold="1" pageScale="1" pageWidth="827" pageHeight="1169" math="0" shadow="0">
      <root>
        <mxCell id="WIyWlLk6GJQsqaUBKTNV-0" />
        <mxCell id="WIyWlLk6GJQsqaUBKTNV-1" parent="WIyWlLk6GJQsqaUBKTNV-0" />
        <mxCell id="zkfFHV4jXpPFQw0GAbJ--0" value="User" style="swimlane;fontStyle=2;align=center;verticalAlign=top;childLayout=stackLayout;horizontal=1;startSize=26;horizontalStack=0;resizeParent=1;resizeLast=0;collapsible=1;marginBottom=0;rounded=0;shadow=0;strokeWidth=1;" vertex="1" parent="WIyWlLk6GJQsqaUBKTNV-1">
          <mxGeometry x="158" y="180" width="230" height="230" as="geometry">
            <mxRectangle x="230" y="140" width="160" height="26" as="alternateBounds" />
          </mxGeometry>
        </mxCell>
        <mxCell id="zkfFHV4jXpPFQw0GAbJ--1" value=" -userID: String[1] = “Empty” {readOnly}" style="text;align=left;verticalAlign=top;spacingLeft=4;spacingRight=4;overflow=hidden;rotatable=0;points=[[0,0.5],[1,0.5]];portConstraint=eastwest;" vertex="1" parent="zkfFHV4jXpPFQw0GAbJ--0">
          <mxGeometry y="26" width="230" height="24" as="geometry" />
        </mxCell>
        <mxCell id="zkfFHV4jXpPFQw0GAbJ--2" value="- name: String [1] = “Empty” {readOnly} " style="text;align=left;verticalAlign=top;spacingLeft=4;spacingRight=4;overflow=hidden;rotatable=0;points=[[0,0.5],[1,0.5]];portConstraint=eastwest;rounded=0;shadow=0;html=0;" vertex="1" parent="zkfFHV4jXpPFQw0GAbJ--0">
          <mxGeometry y="50" width="230" height="26" as="geometry" />
        </mxCell>
        <mxCell id="zkfFHV4jXpPFQw0GAbJ--3" value=" - email: String [1] = “Empty” {readOnly}" style="text;align=left;verticalAlign=top;spacingLeft=4;spacingRight=4;overflow=hidden;rotatable=0;points=[[0,0.5],[1,0.5]];portConstraint=eastwest;rounded=0;shadow=0;html=0;" vertex="1" parent="zkfFHV4jXpPFQw0GAbJ--0">
          <mxGeometry y="76" width="230" height="44" as="geometry" />
        </mxCell>
        <mxCell id="AAdkZCkKwB3ARCdaPR41-1" value=" - password: String [1] = “Empty” {readOnly}" style="text;align=left;verticalAlign=top;spacingLeft=4;spacingRight=4;overflow=hidden;rotatable=0;points=[[0,0.5],[1,0.5]];portConstraint=eastwest;rounded=0;shadow=0;html=0;" vertex="1" parent="zkfFHV4jXpPFQw0GAbJ--0">
          <mxGeometry y="120" width="230" height="44" as="geometry" />
        </mxCell>
        <mxCell id="zkfFHV4jXpPFQw0GAbJ--4" value="" style="line;html=1;strokeWidth=1;align=left;verticalAlign=middle;spacingTop=-1;spacingLeft=3;spacingRight=3;rotatable=0;labelPosition=right;points=[];portConstraint=eastwest;" vertex="1" parent="zkfFHV4jXpPFQw0GAbJ--0">
          <mxGeometry y="164" width="230" height="6" as="geometry" />
        </mxCell>
        <mxCell id="zkfFHV4jXpPFQw0GAbJ--5" value="+ register(name, email, password)    &#xa;+ login(email, password) " style="text;align=left;verticalAlign=top;spacingLeft=4;spacingRight=4;overflow=hidden;rotatable=0;points=[[0,0.5],[1,0.5]];portConstraint=eastwest;" vertex="1" parent="zkfFHV4jXpPFQw0GAbJ--0">
          <mxGeometry y="170" width="230" height="30" as="geometry" />
        </mxCell>
        <mxCell id="zkfFHV4jXpPFQw0GAbJ--6" value="Post" style="swimlane;fontStyle=0;align=center;verticalAlign=top;childLayout=stackLayout;horizontal=1;startSize=26;horizontalStack=0;resizeParent=1;resizeLast=0;collapsible=1;marginBottom=0;rounded=0;shadow=0;strokeWidth=1;" vertex="1" parent="WIyWlLk6GJQsqaUBKTNV-1">
          <mxGeometry x="488" y="180" width="250" height="192" as="geometry">
            <mxRectangle x="130" y="380" width="160" height="26" as="alternateBounds" />
          </mxGeometry>
        </mxCell>
        <mxCell id="zkfFHV4jXpPFQw0GAbJ--7" value="- Id: String[1] = “Empty” {readOnly}&#xa;- description: String [1] = “Empty”{readOnly}&#xa;- image: String [1]  [1] = “Empty”{readOnly}&#xa;" style="text;align=left;verticalAlign=top;spacingLeft=4;spacingRight=4;overflow=hidden;rotatable=0;points=[[0,0.5],[1,0.5]];portConstraint=eastwest;" vertex="1" parent="zkfFHV4jXpPFQw0GAbJ--6">
          <mxGeometry y="26" width="250" height="54" as="geometry" />
        </mxCell>
        <mxCell id="zkfFHV4jXpPFQw0GAbJ--9" value="" style="line;html=1;strokeWidth=1;align=left;verticalAlign=middle;spacingTop=-1;spacingLeft=3;spacingRight=3;rotatable=0;labelPosition=right;points=[];portConstraint=eastwest;" vertex="1" parent="zkfFHV4jXpPFQw0GAbJ--6">
          <mxGeometry y="80" width="250" height="42" as="geometry" />
        </mxCell>
        <mxCell id="zkfFHV4jXpPFQw0GAbJ--11" value="+ addPost(description, image)   &#xa;+ editPost() &#xa;+ deletePost()" style="text;align=left;verticalAlign=top;spacingLeft=4;spacingRight=4;overflow=hidden;rotatable=0;points=[[0,0.5],[1,0.5]];portConstraint=eastwest;" vertex="1" parent="zkfFHV4jXpPFQw0GAbJ--6">
          <mxGeometry y="122" width="250" height="70" as="geometry" />
        </mxCell>
        <mxCell id="zkfFHV4jXpPFQw0GAbJ--13" value="Collection" style="swimlane;fontStyle=0;align=center;verticalAlign=top;childLayout=stackLayout;horizontal=1;startSize=26;horizontalStack=0;resizeParent=1;resizeLast=0;collapsible=1;marginBottom=0;rounded=0;shadow=0;strokeWidth=1;" vertex="1" parent="WIyWlLk6GJQsqaUBKTNV-1">
          <mxGeometry x="306" y="460" width="250" height="90" as="geometry">
            <mxRectangle x="340" y="380" width="170" height="26" as="alternateBounds" />
          </mxGeometry>
        </mxCell>
        <mxCell id="zkfFHV4jXpPFQw0GAbJ--14" value="- name: String[1] = &quot;Empty&quot; {readOnly}&#xa;-items: item[*] = &quot;item&quot;{readOnly}" style="text;align=left;verticalAlign=top;spacingLeft=4;spacingRight=4;overflow=hidden;rotatable=0;points=[[0,0.5],[1,0.5]];portConstraint=eastwest;" vertex="1" parent="zkfFHV4jXpPFQw0GAbJ--13">
          <mxGeometry y="26" width="250" height="44" as="geometry" />
        </mxCell>
        <mxCell id="zkfFHV4jXpPFQw0GAbJ--15" value="" style="line;html=1;strokeWidth=1;align=left;verticalAlign=middle;spacingTop=-1;spacingLeft=3;spacingRight=3;rotatable=0;labelPosition=right;points=[];portConstraint=eastwest;" vertex="1" parent="zkfFHV4jXpPFQw0GAbJ--13">
          <mxGeometry y="70" width="250" height="8" as="geometry" />
        </mxCell>
        <mxCell id="AAdkZCkKwB3ARCdaPR41-6" value="" style="endArrow=none;dashed=1;html=1;dashPattern=1 3;strokeWidth=2;rounded=0;entryX=0.013;entryY=0.491;entryDx=0;entryDy=0;entryPerimeter=0;" edge="1" parent="WIyWlLk6GJQsqaUBKTNV-1" target="zkfFHV4jXpPFQw0GAbJ--9">
          <mxGeometry width="50" height="50" relative="1" as="geometry">
            <mxPoint x="388" y="281" as="sourcePoint" />
            <mxPoint x="438" y="240" as="targetPoint" />
          </mxGeometry>
        </mxCell>
        <mxCell id="AAdkZCkKwB3ARCdaPR41-21" value="Item" style="swimlane;fontStyle=0;align=center;verticalAlign=top;childLayout=stackLayout;horizontal=1;startSize=26;horizontalStack=0;resizeParent=1;resizeLast=0;collapsible=1;marginBottom=0;rounded=0;shadow=0;strokeWidth=1;" vertex="1" parent="WIyWlLk6GJQsqaUBKTNV-1">
          <mxGeometry x="488" y="600" width="240" height="300" as="geometry">
            <mxRectangle x="550" y="140" width="160" height="26" as="alternateBounds" />
          </mxGeometry>
        </mxCell>
        <mxCell id="AAdkZCkKwB3ARCdaPR41-22" value="- itemID: String[1] = &quot;Empty&quot; {readOnly}&#xa;&#xa;- name: String[1] = &quot;Empty&quot; {readOnly}&#xa;&#xa;&#xa;- category: String[1] = &quot;Empty&quot; {readOnly}&#xa;&#xa;- size: int[0..n] = 0 {readOnly}&#xa;&#xa;- colour: String[0..n] = &quot;Empty&quot; {readOnly}&#xa;&#xa;- image: String[1] = &quot;Empty&quot; {readOnly}&#xa;" style="text;align=left;verticalAlign=top;spacingLeft=4;spacingRight=4;overflow=hidden;rotatable=0;points=[[0,0.5],[1,0.5]];portConstraint=eastwest;" vertex="1" parent="AAdkZCkKwB3ARCdaPR41-21">
          <mxGeometry y="26" width="240" height="194" as="geometry" />
        </mxCell>
        <mxCell id="AAdkZCkKwB3ARCdaPR41-23" value="" style="line;html=1;strokeWidth=1;align=left;verticalAlign=middle;spacingTop=-1;spacingLeft=3;spacingRight=3;rotatable=0;labelPosition=right;points=[];portConstraint=eastwest;" vertex="1" parent="AAdkZCkKwB3ARCdaPR41-21">
          <mxGeometry y="220" width="240" height="8" as="geometry" />
        </mxCell>
        <mxCell id="AAdkZCkKwB3ARCdaPR41-24" value="+ displayDetails(itemID)  &#xa;+ filterByCategory()&#xa;+ filterBySize()    &#xa;+ filterByColor()&#xa;" style="text;align=left;verticalAlign=top;spacingLeft=4;spacingRight=4;overflow=hidden;rotatable=0;points=[[0,0.5],[1,0.5]];portConstraint=eastwest;" vertex="1" parent="AAdkZCkKwB3ARCdaPR41-21">
          <mxGeometry y="228" width="240" height="72" as="geometry" />
        </mxCell>
        <mxCell id="AAdkZCkKwB3ARCdaPR41-25" value="Mannequin" style="swimlane;fontStyle=0;align=center;verticalAlign=top;childLayout=stackLayout;horizontal=1;startSize=26;horizontalStack=0;resizeParent=1;resizeLast=0;collapsible=1;marginBottom=0;rounded=0;shadow=0;strokeWidth=1;" vertex="1" parent="WIyWlLk6GJQsqaUBKTNV-1">
          <mxGeometry x="88" y="600" width="290" height="130" as="geometry">
            <mxRectangle x="550" y="140" width="160" height="26" as="alternateBounds" />
          </mxGeometry>
        </mxCell>
        <mxCell id="AAdkZCkKwB3ARCdaPR41-26" value="- availableItems: String[0..n] = &quot;Empty&quot; {ReadOnly}&#xa;- mannequin: String[1] = &quot;Empty&quot; {ReadOnly}" style="text;align=left;verticalAlign=top;spacingLeft=4;spacingRight=4;overflow=hidden;rotatable=0;points=[[0,0.5],[1,0.5]];portConstraint=eastwest;" vertex="1" parent="AAdkZCkKwB3ARCdaPR41-25">
          <mxGeometry y="26" width="290" height="44" as="geometry" />
        </mxCell>
        <mxCell id="AAdkZCkKwB3ARCdaPR41-27" value="" style="line;html=1;strokeWidth=1;align=left;verticalAlign=middle;spacingTop=-1;spacingLeft=3;spacingRight=3;rotatable=0;labelPosition=right;points=[];portConstraint=eastwest;" vertex="1" parent="AAdkZCkKwB3ARCdaPR41-25">
          <mxGeometry y="70" width="290" height="8" as="geometry" />
        </mxCell>
        <mxCell id="AAdkZCkKwB3ARCdaPR41-28" value="+ tryOnItem(mannequin, item)&#xa;+ removeItem(mannequin, item)" style="text;align=left;verticalAlign=top;spacingLeft=4;spacingRight=4;overflow=hidden;rotatable=0;points=[[0,0.5],[1,0.5]];portConstraint=eastwest;" vertex="1" parent="AAdkZCkKwB3ARCdaPR41-25">
          <mxGeometry y="78" width="290" height="52" as="geometry" />
        </mxCell>
        <mxCell id="AAdkZCkKwB3ARCdaPR41-29" value="" style="endArrow=none;dashed=1;html=1;dashPattern=1 3;strokeWidth=2;rounded=0;exitX=0;exitY=0.5;exitDx=0;exitDy=0;" edge="1" parent="WIyWlLk6GJQsqaUBKTNV-1" source="zkfFHV4jXpPFQw0GAbJ--14">
          <mxGeometry width="50" height="50" relative="1" as="geometry">
            <mxPoint x="208" y="460" as="sourcePoint" />
            <mxPoint x="258" y="410" as="targetPoint" />
            <Array as="points">
              <mxPoint x="258" y="508" />
            </Array>
          </mxGeometry>
        </mxCell>
        <mxCell id="AAdkZCkKwB3ARCdaPR41-30" value="" style="endArrow=none;dashed=1;html=1;dashPattern=1 3;strokeWidth=2;rounded=0;entryX=0.493;entryY=1.045;entryDx=0;entryDy=0;entryPerimeter=0;exitX=1;exitY=0.5;exitDx=0;exitDy=0;" edge="1" parent="WIyWlLk6GJQsqaUBKTNV-1" source="zkfFHV4jXpPFQw0GAbJ--14" target="zkfFHV4jXpPFQw0GAbJ--11">
          <mxGeometry width="50" height="50" relative="1" as="geometry">
            <mxPoint x="478" y="610" as="sourcePoint" />
            <mxPoint x="528" y="560" as="targetPoint" />
            <Array as="points">
              <mxPoint x="611" y="508" />
            </Array>
          </mxGeometry>
        </mxCell>
        <mxCell id="AAdkZCkKwB3ARCdaPR41-31" value="" style="endArrow=none;dashed=1;html=1;dashPattern=1 3;strokeWidth=2;rounded=0;exitX=1.004;exitY=1.084;exitDx=0;exitDy=0;exitPerimeter=0;entryX=0.008;entryY=0.235;entryDx=0;entryDy=0;entryPerimeter=0;" edge="1" parent="WIyWlLk6GJQsqaUBKTNV-1" source="AAdkZCkKwB3ARCdaPR41-26" target="AAdkZCkKwB3ARCdaPR41-22">
          <mxGeometry width="50" height="50" relative="1" as="geometry">
            <mxPoint x="478" y="610" as="sourcePoint" />
            <mxPoint x="528" y="560" as="targetPoint" />
          </mxGeometry>
        </mxCell>
        <mxCell id="AAdkZCkKwB3ARCdaPR41-32" value="" style="endArrow=none;html=1;rounded=0;exitX=0.75;exitY=0;exitDx=0;exitDy=0;" edge="1" parent="WIyWlLk6GJQsqaUBKTNV-1" source="AAdkZCkKwB3ARCdaPR41-21">
          <mxGeometry width="50" height="50" relative="1" as="geometry">
            <mxPoint x="662" y="590" as="sourcePoint" />
            <mxPoint x="668" y="374" as="targetPoint" />
          </mxGeometry>
        </mxCell>
        <mxCell id="AAdkZCkKwB3ARCdaPR41-33" value="" style="endArrow=none;html=1;rounded=0;exitX=0.157;exitY=0.003;exitDx=0;exitDy=0;exitPerimeter=0;" edge="1" parent="WIyWlLk6GJQsqaUBKTNV-1" source="AAdkZCkKwB3ARCdaPR41-21">
          <mxGeometry width="50" height="50" relative="1" as="geometry">
            <mxPoint x="478" y="600" as="sourcePoint" />
            <mxPoint x="526" y="550" as="targetPoint" />
          </mxGeometry>
        </mxCell>
        <mxCell id="AAdkZCkKwB3ARCdaPR41-38" value="UML Class Diagram for Pixelate Fashion Retail Website" style="text;html=1;align=center;verticalAlign=middle;whiteSpace=wrap;rounded=0;" vertex="1" parent="WIyWlLk6GJQsqaUBKTNV-1">
          <mxGeometry x="150" y="80" width="570" height="30" as="geometry" />
        </mxCell>
      </root>
    </mxGraphModel>
  </diagram>
</mxfile>
